<?xml version="1.0" encoding="UTF-8"?>
<svg width="128px" height="128px" viewBox="0 0 128 128" version="1.1" xmlns="http://www.w3.org/2000/svg" xmlns:xlink="http://www.w3.org/1999/xlink">
    <!-- Generator: Sketch 63.1 (92452) - https://sketch.com -->
    <title>logo128</title>
    <desc>Created with Sketch.</desc>
    <defs>
        <linearGradient x1="50%" y1="0%" x2="50%" y2="100%" id="linearGradient-1">
            <stop stop-color="#AE00C2" offset="0%"></stop>
            <stop stop-color="#DF0000" offset="100%"></stop>
        </linearGradient>
        <linearGradient x1="50%" y1="0%" x2="50%" y2="100%" id="linearGradient-2">
            <stop stop-color="#F3F3F3" offset="0%"></stop>
            <stop stop-color="#888888" offset="100%"></stop>
        </linearGradient>
        <circle id="path-3" cx="64" cy="64" r="54"></circle>
        <filter x="-7.4%" y="-7.4%" width="114.8%" height="114.8%" filterUnits="objectBoundingBox" id="filter-4">
            <feGaussianBlur stdDeviation="2" in="SourceAlpha" result="shadowBlurInner1"></feGaussianBlur>
            <feOffset dx="0" dy="6" in="shadowBlurInner1" result="shadowOffsetInner1"></feOffset>
            <feComposite in="shadowOffsetInner1" in2="SourceAlpha" operator="arithmetic" k2="-1" k3="1" result="shadowInnerInner1"></feComposite>
            <feColorMatrix values="0 0 0 0 0   0 0 0 0 0   0 0 0 0 0  0 0 0 0.5 0" type="matrix" in="shadowInnerInner1"></feColorMatrix>
        </filter>
        <path d="M60.0510441,97 C65.2807425,97 69.7277649,95.4472727 73.3921114,92.3418182 C75.2420727,90.7890909 76.7896365,88.8851515 78.0348028,86.63 L78.0348028,86.63 L77.9280742,95.3918182 L87,95.3918182 L87,36 L77.3944316,36 L77.3944316,65.1690909 C77.3944316,70.9733333 76.7362722,75.5390909 75.4199536,78.8663636 C73.0007734,85.0772727 68.4470224,88.1827273 61.7587007,88.1827273 C57.0982212,88.1827273 53.9141531,86.4081818 52.2064965,82.8590909 C51.2815159,80.9366667 50.8190255,78.459697 50.8190255,75.4281818 L50.8190255,75.4281818 L50.8190255,36 L41,36 L41,76.3709091 C41,81.4357576 41.800464,85.4839394 43.4013921,88.5154545 C46.354215,94.1718182 51.904099,97 60.0510441,97 Z" id="path-5"></path>
        <filter x="-17.4%" y="-6.6%" width="134.8%" height="126.2%" filterUnits="objectBoundingBox" id="filter-6">
            <feOffset dx="0" dy="4" in="SourceAlpha" result="shadowOffsetOuter1"></feOffset>
            <feGaussianBlur stdDeviation="2" in="shadowOffsetOuter1" result="shadowBlurOuter1"></feGaussianBlur>
            <feColorMatrix values="0 0 0 0 0   0 0 0 0 0   0 0 0 0 0  0 0 0 0.5 0" type="matrix" in="shadowBlurOuter1"></feColorMatrix>
        </filter>
    </defs>
    <g id="logo128" stroke="none" stroke-width="1" fill="none" fill-rule="evenodd">
        <g id="Oval">
            <use fill="url(#linearGradient-1)" fill-rule="evenodd" xlink:href="#path-3"></use>
            <use fill="black" fill-opacity="1" filter="url(#filter-4)" xlink:href="#path-3"></use>
            <use stroke="url(#linearGradient-2)" stroke-width="6" xlink:href="#path-3"></use>
        </g>
        <g id="u" fill-rule="nonzero">
            <use fill="black" fill-opacity="1" filter="url(#filter-6)" xlink:href="#path-5"></use>
            <use fill="#E8E8E8" xlink:href="#path-5"></use>
        </g>
    </g>
</svg>