<?xml version="1.0" encoding="UTF-8"?>
<svg width="128px" height="128px" viewBox="0 0 128 128" version="1.1" xmlns="http://www.w3.org/2000/svg" xmlns:xlink="http://www.w3.org/1999/xlink">
    <title>logo128</title>
    <defs>
        <linearGradient x1="50%" y1="0%" x2="50%" y2="100%" id="linearGradient-1">
            <stop stop-color="#AE00C2" offset="0%"></stop>
            <stop stop-color="#DF0000" offset="100%"></stop>
        </linearGradient>
        <linearGradient x1="50%" y1="0%" x2="50%" y2="100%" id="linearGradient-2">
            <stop stop-color="#C8C8C8" offset="0%"></stop>
            <stop stop-color="#888888" offset="100%"></stop>
        </linearGradient>
        <path d="M115.99292,40.6857208 C115.986735,39.6455984 115.974745,38.6057284 115.946473,37.5661108 C115.885386,35.3002064 115.751727,33.0148652 115.34873,30.7742035 C114.940054,28.5012312 114.272641,26.3857729 113.220911,24.3205474 C112.186977,22.2906616 110.836375,20.4331829 109.224892,18.8228295 C107.613787,17.2124762 105.755811,15.8627529 103.725175,14.829446 C101.657812,13.7774595 99.5400899,13.1102969 97.2646019,12.701745 C95.0236961,12.2993776 92.7377325,12.1659703 90.4718366,12.1047569 C89.4314657,12.0766114 88.3910948,12.0647473 87.3504714,12.0583105 C86.1151019,12.0507377 84.8797324,12.0513687 83.6443629,12.0513687 L69.3005467,12 L58.5724708,12 L44.4824683,12.0513687 C43.2447008,12.0513687 42.0069332,12.0507377 40.7691657,12.0583105 C39.7263967,12.0647473 38.6841326,12.0766114 37.6417422,12.1047569 C35.3705455,12.1659703 33.0794071,12.2995038 30.8332004,12.7023761 C28.5546833,13.1108018 26.4338058,13.777712 24.3636658,14.8289412 C22.3287391,15.8623743 20.4667237,17.2122237 18.8522114,18.8228295 C17.2379515,20.4330567 15.8848256,22.2901567 14.8489983,24.3196639 C13.7943654,26.3858991 13.1256907,28.5026195 12.7160044,30.776854 C12.3126288,33.0166322 12.1789695,35.3012161 12.117504,37.5661108 C12.0894848,38.6058546 12.0773684,39.6457246 12.0710577,40.6857208 C12.063485,41.9205901 12,43.4544583 12,44.6892014 L12,58.5840052 L12,69.4269754 L12.064116,83.6169917 C12.064116,84.8533755 12.0636112,86.0897594 12.0710577,87.3261432 C12.0773684,88.367654 12.0894848,89.4089123 12.1176302,90.4500445 C12.1789695,92.7188518 12.3128812,95.0074745 12.7166355,97.2511653 C13.1261955,99.5271668 13.794744,101.645654 14.8484935,103.71353 C15.884447,105.746319 17.2378253,107.606196 18.8522114,109.218821 C20.4665975,110.831446 22.328108,112.182936 24.3626561,113.217758 C26.4340582,114.271133 28.5559454,114.939179 30.8358509,115.348235 C33.0810478,115.751234 35.3714289,115.884894 37.6417422,115.946107 C38.6841326,115.974253 39.7265229,115.986243 40.7692919,115.992553 C42.0070594,116 43.2447008,116 44.4824683,116 L58.6998194,116 L69.4545262,116 L83.6443629,116 C84.8797324,116 86.1151019,116 87.3504714,115.992553 C88.3910948,115.986243 89.4314657,115.974253 90.4718366,115.946107 C92.738616,115.884767 95.0253369,115.750981 97.2672524,115.347731 C99.541352,114.938674 101.658065,114.27088 103.724292,113.218136 C105.755306,112.183441 107.613661,110.831698 109.224892,109.218821 C110.836123,107.606448 112.186598,105.746824 113.220532,103.714414 C114.272893,101.645528 114.940306,99.5260309 115.349235,97.2485149 C115.751853,95.0057075 115.885386,92.7179683 115.9466,90.4500445 C115.974745,89.4087861 115.986735,88.3675278 115.99292,87.3261432 C116,86.0897594 116,84.8533755 116,83.6169917 C116,83.6169917 116,69.6775085 116,69.4269754 L116,58.572646 C116,58.3876175 116,44.3898238 116,44.3898238 C116,43.155207 116,41.9204639 115.99292,40.6857208 Z" id="path-3"></path>
        <filter x="-2.4%" y="-1.2%" width="104.8%" height="104.8%" filterUnits="objectBoundingBox" id="filter-4">
            <feOffset dx="0" dy="1.25" in="SourceAlpha" result="shadowOffsetOuter1"></feOffset>
            <feGaussianBlur stdDeviation="0.625" in="shadowOffsetOuter1" result="shadowBlurOuter1"></feGaussianBlur>
            <feComposite in="shadowBlurOuter1" in2="SourceAlpha" operator="out" result="shadowBlurOuter1"></feComposite>
            <feColorMatrix values="0 0 0 0 0   0 0 0 0 0   0 0 0 0 0  0 0 0 0.3 0" type="matrix" in="shadowBlurOuter1"></feColorMatrix>
        </filter>
        <path d="M60.0510441,97 C65.2807425,97 69.7277649,95.4472727 73.3921114,92.3418182 C75.2420727,90.7890909 76.7896365,88.8851515 78.0348028,86.63 L78.0348028,86.63 L77.9280742,95.3918182 L87,95.3918182 L87,36 L77.3944316,36 L77.3944316,65.1690909 C77.3944316,70.9733333 76.7362722,75.5390909 75.4199536,78.8663636 C73.0007734,85.0772727 68.4470224,88.1827273 61.7587007,88.1827273 C57.0982212,88.1827273 53.9141531,86.4081818 52.2064965,82.8590909 C51.2815159,80.9366667 50.8190255,78.459697 50.8190255,75.4281818 L50.8190255,75.4281818 L50.8190255,36 L41,36 L41,76.3709091 C41,81.4357576 41.800464,85.4839394 43.4013921,88.5154545 C46.354215,94.1718182 51.904099,97 60.0510441,97 Z" id="path-5"></path>
        <filter x="-17.4%" y="-6.6%" width="134.8%" height="126.2%" filterUnits="objectBoundingBox" id="filter-6">
            <feOffset dx="0" dy="4" in="SourceAlpha" result="shadowOffsetOuter1"></feOffset>
            <feGaussianBlur stdDeviation="2" in="shadowOffsetOuter1" result="shadowBlurOuter1"></feGaussianBlur>
            <feColorMatrix values="0 0 0 0 0   0 0 0 0 0   0 0 0 0 0  0 0 0 0.5 0" type="matrix" in="shadowBlurOuter1"></feColorMatrix>
        </filter>
    </defs>
    <g id="logo128" stroke="none" stroke-width="1" fill="none" fill-rule="evenodd">
        <g id="Mask">
            <use fill="black" fill-opacity="1" filter="url(#filter-4)" xlink:href="#path-3"></use>
            <path stroke="url(#linearGradient-2)" stroke-width="6" d="M69.2951749,15 L83.6390423,15.0513689 L83.6390423,15.0513689 L85.1246298,15.051679 C85.9034666,15.0522617 86.6177235,15.0538751 87.331915,15.0582531 C88.351676,15.0645609 89.3711918,15.0760784 90.3908209,15.1036628 C92.5064919,15.1608178 94.6417472,15.2787732 96.734445,15.6545291 C98.7166066,16.0104158 100.563289,16.5865721 102.364619,17.5031861 C104.114568,18.393663 105.715665,19.5568908 107.104316,20.9448937 C108.492908,22.3325123 109.656777,23.9330266 110.547601,25.6819486 C111.463832,27.4811013 112.040145,29.3254685 112.396106,31.3052514 C112.77238,33.3973323 112.890536,35.5316431 112.947582,37.6476634 C112.975276,38.6660475 112.986914,39.6846802 112.992969,40.7029235 C113.000016,41.9319322 113,43.1609408 113,44.3898238 L113,44.3898238 L113,83.6169917 C113,84.8476489 113.000016,86.0783061 112.992972,87.3083276 C112.986913,88.3286277 112.97527,89.3488063 112.947692,90.3691015 C112.890533,92.4868068 112.772445,94.6238611 112.396454,96.7183417 C112.040169,98.7026584 111.463704,100.551257 110.546646,102.354146 C109.655515,104.105846 108.491508,105.70858 107.102488,107.098584 C105.714036,108.488456 104.11269,109.653395 102.362374,110.54509 C100.562305,111.462225 98.7167896,112.038846 96.7361682,112.395113 C94.6427522,112.771654 92.5069849,112.889937 90.3907062,112.947204 C89.3713131,112.974782 88.3519186,112.986425 87.3323883,112.992608 C86.1030465,113.000018 84.8737047,113 83.6443629,113 L83.6443629,113 L44.4824683,113 C43.250717,113 42.0190913,113.000018 40.7874471,112.992608 C39.7656235,112.986424 38.7441688,112.97478 37.7226004,112.947197 C35.6025073,112.890034 33.4628285,112.771817 31.365646,112.395386 C29.3789496,112.038937 27.5280003,111.46181 25.7227151,110.543765 C23.9687902,109.651675 22.3640838,108.486535 20.9723739,107.096343 C19.5809215,105.706409 18.4143124,104.103445 17.5214534,102.351442 C16.6033243,100.549707 16.0259675,98.7024104 15.6692107,96.7198466 C15.292196,94.6247496 15.1738024,92.487182 15.1165346,90.3689737 C15.0889558,89.348803 15.0771862,88.3285072 15.0710033,87.308075 C15.0640243,86.1493157 15.0640844,84.9905563 15.0641126,83.831797 L15.0641126,83.831797 L15,69.4203024 L15,44.6892014 C15,44.0497468 15.0179697,43.3272473 15.03545,42.6107248 C15.0515708,41.9499268 15.0673845,41.2938982 15.0710025,40.7039243 C15.0771865,39.6848021 15.0889584,38.6658016 15.1163999,37.647496 C15.1737775,35.5332336 15.2918969,33.3997363 15.668481,31.3087205 C16.0252257,29.328373 16.6024662,27.4832213 17.5210897,25.6834556 C18.4136894,23.9345756 19.5798385,22.3343647 20.9709607,20.9467178 C22.3627447,19.5583015 23.9678701,18.394642 25.7219843,17.5038189 C27.5265564,16.5874466 29.3768191,16.0112485 31.3628195,15.6552567 C33.4609061,15.2789507 35.6014715,15.1608358 37.7227156,15.1036639 C38.744289,15.0760805 39.7657402,15.0645616 40.7875197,15.0582543 C41.932528,15.051249 43.0775364,15.0513209 44.2225447,15.0513625 L44.2225447,15.0513625 L58.5778377,15 L69.2951749,15 Z" stroke-linejoin="square" fill="url(#linearGradient-1)" fill-rule="evenodd"></path>
        </g>
        <g id="u" fill-rule="nonzero">
            <use fill="black" fill-opacity="1" filter="url(#filter-6)" xlink:href="#path-5"></use>
            <use fill="#E8E8E8" xlink:href="#path-5"></use>
        </g>
    </g>
</svg>