<!DOCTYPE svg PUBLIC "-//W3C//DTD SVG 1.1//EN" "http://www.w3.org/Graphics/SVG/1.1/DTD/svg11.dtd">
<!-- Uploaded to: SVG Repo, www.svgrepo.com, Transformed by: SVG Repo Mixer Tools -->
<svg fill="#ffffff" height="48px" width="48px" version="1.1" id="Capa_1" xmlns="http://www.w3.org/2000/svg" xmlns:xlink="http://www.w3.org/1999/xlink" viewBox="0 0 60 60" xml:space="preserve" stroke="#ffffff" stroke-width="0.3">
<g id="SVGRepo_bgCarrier" stroke-width="0"/>
<g id="SVGRepo_tracerCarrier" stroke-linecap="round" stroke-linejoin="round"/>
<g id="SVGRepo_iconCarrier"> <g> <g> <path d="M14,16c0.256,0,0.512-0.098,0.707-0.293l4-4c0.391-0.391,0.391-1.023,0-1.414s-1.023-0.391-1.414,0l-4,4 c-0.391,0.391-0.391,1.023,0,1.414C13.488,15.902,13.744,16,14,16z"/> <path d="M14,21c0.256,0,0.512-0.098,0.707-0.293l2-2c0.391-0.391,0.391-1.023,0-1.414s-1.023-0.391-1.414,0l-2,2 c-0.391,0.391-0.391,1.023,0,1.414C13.488,20.902,13.744,21,14,21z"/> <path d="M17.29,15.29C17.11,15.48,17,15.74,17,16s0.11,0.52,0.29,0.71C17.48,16.89,17.74,17,18,17s0.52-0.11,0.71-0.29 C18.89,16.52,19,16.27,19,16s-0.11-0.52-0.29-0.71C18.34,14.92,17.66,14.92,17.29,15.29z"/> <path d="M19.293,14.707C19.488,14.902,19.744,15,20,15s0.512-0.098,0.707-0.293l3-3c0.391-0.391,0.391-1.023,0-1.414 s-1.023-0.391-1.414,0l-3,3C18.902,13.684,18.902,14.316,19.293,14.707z"/> <path d="M22.293,15.293l-9,9c-0.391,0.391-0.391,1.023,0,1.414C13.488,25.902,13.744,26,14,26s0.512-0.098,0.707-0.293l9-9 c0.391-0.391,0.391-1.023,0-1.414S22.684,14.902,22.293,15.293z"/> <path d="M24.29,13.29C24.11,13.48,24,13.74,24,14s0.11,0.52,0.29,0.71C24.48,14.89,24.74,15,25,15s0.52-0.11,0.71-0.29 C25.89,14.52,26,14.26,26,14s-0.11-0.52-0.29-0.71C25.34,12.92,24.67,12.92,24.29,13.29z"/> <path d="M27.293,10.293l-1,1c-0.391,0.391-0.391,1.023,0,1.414C26.488,12.902,26.744,13,27,13s0.512-0.098,0.707-0.293l1-1 c0.391-0.391,0.391-1.023,0-1.414S27.684,9.902,27.293,10.293z"/> <path d="M51.857,0H8.143C5.858,0,4,1.858,4,4.143v41.715c0,2.235,1.783,4.051,4,4.128V60h44V49.986c2.217-0.077,4-1.893,4-4.128 V4.143C56,1.858,54.142,0,51.857,0z M50,58H10v-8h40V58z M54,45.857C54,47.039,53.039,48,51.857,48H8.143 C6.961,48,6,47.039,6,45.857V4.143C6,2.961,6.961,2,8.143,2h43.715C53.039,2,54,2.961,54,4.143V45.857z"/> <path d="M49,57v-6h-6h-7v6h7H49z M47,53v2h-2v-2H47z M38,55v-2h5v2H38z"/> <path d="M47.128,5H12.872C10.186,5,8,7.186,8,9.872v21.256C8,33.814,10.186,36,12.872,36h34.256C49.814,36,52,33.814,52,31.128 V9.872C52,7.186,49.814,5,47.128,5z M50,31.128C50,32.711,48.711,34,47.128,34H12.872C11.289,34,10,32.711,10,31.128V9.872 C10,8.289,11.289,7,12.872,7h34.256C48.711,7,50,8.289,50,9.872V31.128z"/> <path d="M10,47h6v-5h-6V47z M12,44h2v1h-2V44z"/> <path d="M49,39h-9v2h-9v2h9v2h9v-2h2v-2h-2V39z M47,43h-5v-2h5V43z"/> </g> </g> </g>
</svg>